<?xml version="1.0" encoding="UTF-8"?>
<svg width="889px" height="184px" viewBox="0 0 889 184" version="1.1" xmlns="http://www.w3.org/2000/svg" xmlns:xlink="http://www.w3.org/1999/xlink">
    <!-- Generator: Sketch 64 (93537) - https://sketch.com -->
    <title>Group 16</title>
    <desc>Created with Sketch.</desc>
    <defs>
        <polygon id="path-1" points="0.383125424 0.450908696 115.881559 0.450908696 115.881559 136.742083 0.383125424 136.742083"></polygon>
    </defs>
    <g id="Page-1" stroke="none" stroke-width="1" fill="none" fill-rule="evenodd">
        <g id="V3-Copy-4" transform="translate(-276.000000, -583.000000)">
            <g id="Group-16" transform="translate(276.000000, 583.000000)">
                <path d="M215.877251,151.317124 L215.877251,113.969727 L206.122749,116.028292 C190.977602,119.37866 181.993192,127.363276 181.993192,141.531511 C181.993192,154.409924 189.437417,161.879403 200.475406,161.879403 C207.406236,161.879403 212.796882,158.531016 215.877251,151.317124 L215.877251,151.317124 Z M278,159.559308 C272.609354,175.530521 259.004391,182.742432 245.656126,182.742432 C231.28107,182.742432 221.267897,175.788089 217.93083,160.076426 L216.133948,160.076426 C211,175.015384 197.395037,183 180.19631,183 C160.171937,183 144,172.182133 144,148.999009 C144,127.620844 161.198727,113.45459 193.544576,107.272952 L215.877251,102.894292 L215.877251,96.968241 C215.877251,79.9687363 207.406236,70.6962792 189.950812,70.6962792 C173.778875,70.6962792 163.509004,78.4233268 157.604963,90.5290347 L147.593764,86.1503744 C152.727712,64.7722094 170.696531,47 202.272288,47 C237.185111,47 253.357048,66.5751872 253.357048,101.348883 L253.357048,148.483873 C253.357048,155.697765 256.437417,159.818857 262.08476,159.818857 C265.935221,159.818857 268.758893,157.498762 271.06917,154.152356 L278,159.559308 Z" id="Fill-1" fill="#1D1D1B"></path>
                <path d="M281,117.060546 C281,79.4555811 305.750172,47 348.001874,47 C363.001503,47 374.251224,49.3181143 387.251295,55.7573206 L387.251295,93.3642668 L374.751604,93.3642668 C371.001697,75.8476443 360.750773,66.5751872 343.500415,66.5751872 C322.50015,66.5751872 311.750809,82.2868506 311.750809,104.954838 C311.750809,133.802482 327.751198,152.09181 353.500168,152.09181 C367.750208,152.09181 377.251542,146.680895 383.250217,135.60546 L392,140.241689 C386.750915,163.422832 370.000937,183 340.500097,183 C304.751374,183 281,155.180647 281,117.060546" id="Fill-3" fill="#1D1D1B"></path>
                <path d="M419.058319,142.664359 L419.058319,65.0778817 L399,65.0778817 L399,57.1139097 C420.08685,45.0395006 436.729262,29.9553819 449.657097,10 L456.599676,10 L456.599676,50.4344494 L489.771757,50.4344494 L489.771757,65.0778817 L456.599676,65.0778817 L456.599676,135.214192 C456.599676,152.426647 464.829897,159.619913 476.657996,159.619913 C483.600575,159.619913 489.257492,156.793987 493.114481,154.22694 L498,162.961619 C488.486094,172.980809 472.801007,183 455.828279,183 C431.400683,183 419.058319,169.639103 419.058319,142.664359" id="Fill-5" fill="#1D1D1B"></path>
                <path d="M654,180.655806 L600.198088,180.655806 L600.198088,169.594239 C600.198088,162.391359 602,154.931233 604.059328,149.529072 L602,149.014581 C594.794334,172.423942 576.258406,184 557.467042,184 C533.267964,184 517.308176,170.108731 517.308176,141.552476 L517.308176,83.9294322 C517.308176,71.3243915 511.900461,69.0072011 498,69.0072011 L498,57.9456347 L546.396177,51 L555.148319,51 L555.148319,135.378578 C555.148319,150.300809 560.556034,159.818901 575.228742,159.818901 C585.782796,159.818901 594.277522,154.416741 597.623929,145.668407 L597.623929,83.9294322 C597.623929,71.3243915 591.960778,69.2644468 578.060318,69.2644468 L578.060318,58.4601262 L626.456494,51 L635.208636,51 L635.208636,151.842305 C635.208636,164.70657 640.356955,169.079748 654,169.851485 L654,180.655806 Z" id="Fill-7" fill="#1D1D1B"></path>
                <path d="M767,48.030977 L767,87.4678304 L760.032677,87.4678304 C756.68098,85.4058764 752.553372,84.3748994 747.133902,84.3748994 C733.4612,84.3748994 719.788498,90.0452729 719.788498,113.5 L719.788498,151.130661 C719.788498,166.339555 727.011812,168.401509 746.361959,169.174741 L746.361959,180 L662.773927,180 L662.773927,169.174741 C677.73849,168.145747 682.124074,164.793089 682.124074,152.163621 L682.124074,85.4058764 C682.124074,77.931293 677.994481,74.838362 670.255216,74.838362 C668.191412,74.838362 664.837731,75.0941236 662,75.3538505 L662,64.5266092 L704.050008,50.092931 L716.948783,50.092931 L716.948783,76.6425718 C716.948783,83.6016666 716.176841,97.262112 714.886963,103.963463 L716.948783,104.221207 L720.046473,84.8903879 C723.916106,61.6914224 738.104759,47 759.774701,47 C762.614416,47 764.936196,47.2577443 767,48.030977" id="Fill-9" fill="#1D1D1B"></path>
                <g id="Group-13" transform="translate(773.000000, 47.000000)">
                    <mask id="mask-2" fill="white">
                        <use xlink:href="#path-1"></use>
                    </mask>
                    <g id="Clip-12"></g>
                    <path d="M31.3207017,47.9462275 L75.6617186,47.9462275 C75.6617186,26.5206188 70.5077695,13.3567058 55.0379898,13.3567058 C40.3435831,13.3567058 31.8362949,23.9414449 31.3207017,47.9462275 M106.599295,89.7629957 L115.881956,94.4070971 C110.981837,112.99343 95.2562441,136.742083 60.9673119,136.742083 C24.8757864,136.742083 0.383125424,109.379807 0.383125424,71.9510101 C0.383125424,29.8761261 23.0712102,0.450908696 60.9673119,0.450908696 C92.9340915,0.450908696 115.881956,20.3258362 115.881956,60.8520246 L31.8362949,60.8520246 C34.6700746,91.0535754 50.9132441,105.766184 72.827939,105.766184 C90.3581085,105.766184 99.6387864,99.8295174 106.599295,89.7629957" id="Fill-11" fill="#1D1D1B" mask="url(#mask-2)"></path>
                </g>
                <path d="M149,50.7385471 L136.343284,50.7385471 C129.37027,19.8804435 121.209261,13.1158313 85.8256846,13.1158313 L65.3436975,13.1158313 L65.3436975,84.2649143 L76.7865924,84.2649143 C96.1560758,84.2649143 99.7717128,78.0936892 104.678649,54.1782139 L114.752767,54.1782139 L114.752767,127.720625 L104.678649,127.720625 C100.029973,103.035724 95.8978161,97.1216334 76.7865924,97.1216334 L65.3436975,97.1216334 L65.3436975,136.62143 C65.3436975,161.565443 71.2836724,167.143281 97.1096504,168.173796 L97.1096504,180 L0,180 L0,168.173796 C20.4045092,166.371878 24.7949255,161.22919 24.7949255,138.599387 L24.7949255,41.4006132 C24.7949255,18.0013846 19.8879897,13.6281221 0,11.8301594 L0,0 L148.584798,0 L149,50.7385471 Z" id="Fill-14" fill="#1D1D1B"></path>
            </g>
        </g>
    </g>
</svg>