<svg width="295" height="295" viewBox="0 0 295 295" fill="none" xmlns="http://www.w3.org/2000/svg">
<circle cx="147.5" cy="147.5" r="147.5" fill="#848080"/>
<path d="M189.815 147.108H104.968" stroke="#F5F5F5" stroke-linecap="square"/>
<path d="M147.5 104.793V189.641" stroke="#F5F5F5" stroke-linecap="square"/>
<path d="M103.045 207.11V213.92C103.045 216.86 104.425 218.165 106.885 218.165C109.33 218.165 110.725 216.86 110.725 213.92V207.11H109.81V213.65C109.81 215.135 109.66 215.945 109 216.605C108.46 217.16 107.68 217.415 106.885 217.415C106.075 217.415 105.325 217.115 104.755 216.575C104.095 215.93 103.945 215.09 103.945 213.605V207.11H103.045ZM119.969 214.13C119.969 211.64 118.514 210.095 116.744 210.095C115.739 210.095 114.764 210.59 114.194 211.475V210.26H113.339V221.015H114.194V216.785C114.809 217.73 115.754 218.165 116.699 218.165C118.439 218.165 119.969 216.695 119.969 214.13ZM119.069 214.13C119.069 216.14 118.064 217.46 116.609 217.46C115.109 217.46 114.164 216.14 114.164 214.13C114.164 212.12 115.109 210.815 116.609 210.815C118.064 210.815 119.069 212.12 119.069 214.13ZM121.923 218H122.778V207.11H121.923V218ZM128.294 210.095C126.164 210.095 124.724 211.73 124.724 214.13C124.724 216.545 126.209 218.165 128.279 218.165C130.364 218.165 131.804 216.545 131.804 214.13C131.804 211.73 130.379 210.095 128.294 210.095ZM128.264 210.815C129.884 210.815 130.904 212.06 130.904 214.13C130.904 216.215 129.929 217.46 128.264 217.46C126.584 217.46 125.624 216.215 125.624 214.13C125.624 212.06 126.629 210.815 128.264 210.815ZM134.449 212.585C134.449 211.475 135.289 210.845 136.519 210.845C137.809 210.845 138.529 211.445 138.529 212.93V213.245C137.329 213.32 135.934 213.41 134.854 213.815C133.474 214.325 133.219 215.3 133.219 216.005C133.219 217.37 134.344 218.165 135.964 218.165C137.059 218.165 137.854 217.82 138.559 216.875C138.574 217.37 138.589 217.58 138.649 218H139.534C139.399 217.295 139.384 216.605 139.384 216.245V213.17C139.384 210.695 138.274 210.095 136.549 210.095C134.794 210.095 133.549 211.085 133.549 212.585H134.449ZM138.529 214.34C138.529 216.2 137.674 217.46 136.054 217.46C134.899 217.46 134.134 216.92 134.134 215.99C134.134 215.405 134.284 214.835 135.229 214.475C135.889 214.235 137.344 214.04 138.529 213.98V214.34ZM141.277 214.13C141.277 216.62 142.732 218.165 144.502 218.165C145.507 218.165 146.482 217.67 147.052 216.785V218H147.907V207.11H147.052V211.475C146.437 210.485 145.492 210.095 144.547 210.095C142.807 210.095 141.277 211.565 141.277 214.13ZM142.177 214.13C142.177 212.12 143.182 210.815 144.637 210.815C146.137 210.815 147.082 212.12 147.082 214.13C147.082 216.14 146.137 217.46 144.637 217.46C143.182 217.46 142.177 216.14 142.177 214.13ZM153.584 218H154.484V207.11H153.584V218ZM162.718 213.77C162.718 211.79 163.618 210.815 164.803 210.815C165.988 210.815 166.573 211.505 166.573 213.185V218H167.428V213.245C167.428 211.37 166.978 210.095 164.938 210.095C163.783 210.095 162.913 210.635 162.448 211.655C162.178 210.65 161.383 210.095 160.303 210.095C159.268 210.095 158.503 210.515 158.008 211.385V210.26H157.153V218H158.008V213.77C158.008 211.79 158.923 210.815 160.093 210.815C161.293 210.815 161.863 211.505 161.863 213.185V218H162.718V213.77ZM170.484 212.585C170.484 211.475 171.324 210.845 172.554 210.845C173.844 210.845 174.564 211.445 174.564 212.93V213.245C173.364 213.32 171.969 213.41 170.889 213.815C169.509 214.325 169.254 215.3 169.254 216.005C169.254 217.37 170.379 218.165 171.999 218.165C173.094 218.165 173.889 217.82 174.594 216.875C174.609 217.37 174.624 217.58 174.684 218H175.569C175.434 217.295 175.419 216.605 175.419 216.245V213.17C175.419 210.695 174.309 210.095 172.584 210.095C170.829 210.095 169.584 211.085 169.584 212.585H170.484ZM174.564 214.34C174.564 216.2 173.709 217.46 172.089 217.46C170.934 217.46 170.169 216.92 170.169 215.99C170.169 215.405 170.319 214.835 171.264 214.475C171.924 214.235 173.379 214.04 174.564 213.98V214.34ZM177.597 218.585C177.702 220.145 178.842 221.075 180.747 221.075C182.742 221.075 183.927 219.92 183.927 217.52V210.26H183.072V211.445C182.472 210.515 181.707 210.095 180.657 210.095C178.707 210.095 177.312 211.715 177.312 213.995C177.312 216.32 178.602 217.805 180.492 217.805C181.617 217.805 182.532 217.25 183.057 216.35V217.01C183.042 218.915 182.742 220.355 180.732 220.355C179.427 220.355 178.617 219.71 178.527 218.585H177.597ZM180.657 210.815C182.112 210.815 183.057 212 183.057 213.935C183.057 215.84 182.112 217.085 180.657 217.085C179.172 217.085 178.212 215.9 178.212 213.995C178.212 212.06 179.157 210.815 180.657 210.815ZM191.701 215.705C191.551 216.725 190.636 217.46 189.406 217.46C187.831 217.46 186.781 216.245 186.781 214.325H192.616C192.616 211.82 191.656 210.095 189.376 210.095C187.231 210.095 185.881 211.7 185.881 214.13C185.881 216.62 187.171 218.165 189.361 218.165C191.071 218.165 192.301 217.235 192.601 215.705H191.701ZM186.811 213.605C186.961 211.73 187.876 210.815 189.316 210.815C190.741 210.815 191.611 211.79 191.716 213.605H186.811Z" fill="white"/>
</svg>
